<svg width="24" height="24" viewBox="0 0 24 24" fill="none" xmlns="http://www.w3.org/2000/svg">
<path fill-rule="evenodd" clip-rule="evenodd" d="M12 0.199997C5.37 0.199997 0 5.57 0 12.2C0 17.51 3.435 21.995 8.205 23.585C8.805 23.69 9.03 23.33 9.03 23.015C9.03 22.73 9.015 21.785 9.015 20.78C6 21.335 5.22 20.045 4.98 19.37C4.845 19.025 4.26 17.96 3.75 17.675C3.33 17.45 2.73 16.895 3.735 16.88C4.68 16.865 5.355 17.75 5.58 18.11C6.66 19.925 8.385 19.415 9.075 19.1C9.18 18.32 9.495 17.795 9.84 17.495C7.17 17.195 4.38 16.16 4.38 11.57C4.38 10.265 4.845 9.185 5.61 8.345C5.49 8.045 5.07 6.815 5.73 5.165C5.73 5.165 6.735 4.85 9.03 6.395C9.99 6.125 11.01 5.99 12.03 5.99C13.05 5.99 14.07 6.125 15.03 6.395C17.325 4.835 18.33 5.165 18.33 5.165C18.99 6.815 18.57 8.045 18.45 8.345C19.215 9.185 19.68 10.25 19.68 11.57C19.68 16.175 16.875 17.195 14.205 17.495C14.64 17.87 15.015 18.59 15.015 19.715C15.015 21.32 15 22.61 15 23.015C15 23.33 15.225 23.705 15.825 23.585C18.2072 22.7808 20.2773 21.2498 21.7438 19.2074C23.2103 17.1651 23.9994 14.7143 24 12.2C24 5.57 18.63 0.199997 12 0.199997Z" fill="white"/>
</svg>
