<svg width="24" height="25" viewBox="0 0 24 25" fill="none" xmlns="http://www.w3.org/2000/svg">
<path fill-rule="evenodd" clip-rule="evenodd" d="M0 2.20499C0 1.67324 0.211242 1.16326 0.587252 0.787249C0.963262 0.411239 1.47324 0.199997 2.005 0.199997H21.9949C22.2583 0.199997 22.519 0.251861 22.7622 0.352622C23.0055 0.453383 23.2265 0.601066 23.4127 0.787249C23.5989 0.973432 23.7466 1.19446 23.8474 1.43771C23.9481 1.68097 24 1.94169 24 2.20499V22.1949C24 22.4583 23.9481 22.719 23.8474 22.9622C23.7466 23.2055 23.5989 23.4265 23.4127 23.6127C23.2265 23.7988 23.0055 23.9466 22.7622 24.0474C22.519 24.1481 22.2583 24.2 21.9949 24.2H2.005C1.47324 24.2 0.963262 23.9887 0.587252 23.6127C0.211242 23.2367 0 22.7268 0 22.1949V2.20499ZM9.49998 9.34999H12.75V10.983C13.2185 10.0439 14.419 9.19998 16.2224 9.19998C19.6795 9.19998 20.5 11.069 20.5 14.4984V20.85H17V15.2794C17 13.3265 16.5315 12.225 15.34 12.225C13.6875 12.225 13 13.4125 13 15.2794V20.85H9.49998V9.34999ZM3.49999 20.7H6.99999V9.19998H3.49999V20.7ZM7.49999 5.44998C7.49999 5.74546 7.44179 6.03804 7.32872 6.31102C7.21564 6.584 7.04991 6.83204 6.84098 7.04097C6.63205 7.2499 6.38401 7.41564 6.11103 7.52872C5.83805 7.64179 5.54546 7.69999 5.24999 7.69999C4.95452 7.69999 4.66194 7.64179 4.38896 7.52872C4.11597 7.41564 3.86794 7.2499 3.659 7.04097C3.45007 6.83204 3.28434 6.584 3.17126 6.31102C3.0582 6.03804 2.99999 5.74546 2.99999 5.44998C2.99999 4.85325 3.23705 4.28096 3.659 3.859C4.08096 3.43705 4.65325 3.19999 5.24999 3.19999C5.84673 3.19999 6.41903 3.43705 6.84098 3.859C7.26294 4.28096 7.49999 4.85325 7.49999 5.44998Z" fill="white"/>
</svg>
